<svg xmlns="http://www.w3.org/2000/svg" fill="royalblue" viewBox="0 0 7427 10658">
  <path fill="inherit" d="M4427.5 8420.54c0 1504.48-1281.74 1850.36-2519.23 1545.27-289.74-72.44-543.26-171.03-760.56-295.78-217.306-124.75-400.405-267.6-549.299-428.57-144.869-160.97-261.569-329.98-350.101-507.04-88.531-177.06-152.9173-354.13-193.1588-531.19C18.9339 8022.14.825195 7851.12.825195 7690.15V2444.67c0-173.04 10.060405-354.12 30.181105-543.26 24.1449-189.13 74.4467-374.25 150.9057-555.33 80.483-181.09 199.195-352.115 356.137-513.081 160.966-164.99 376.258-307.847 645.881-428.572 273.64-124.748 613.68-223.34 1020.12-295.775C2614.51 36.2171 3109.48 0 3688.96 0c567.4 0 1052.31 38.2291 1454.73 114.688 406.44 76.459 746.48 179.075 1020.12 307.848 277.67 124.748 499 271.63 663.99 440.644 169.01 164.99 295.77 338.03 380.28 519.12 88.53 181.08 146.88 364.18 175.05 549.29 28.17 181.09 42.25 352.12 42.25 513.08v1919.52h-3000V1653.93H3000.83v6766.61H4427.5Z"/>
  <path fill="inherit" d="M4574.29 9444.66c211.31-48.78 400.28-119.91 566.89-213.4 73.14-40.65 142.23-87.4 207.24-140.24 69.09-48.78 130.04-107.71 182.87-176.82 56.89-65.03 101.59-140.23 134.1-225.59 32.51-81.3 48.77-170.72 48.77-268.28H4428V5451h2999v2054.75c0 617.85-65.02 1127.98-195.06 1530.4-130.04 406.48-316.96 729.63-560.79 969.45-243.82 239.8-542.5 408.5-896.04 506.1-353.54 97.5-753.81 146.3-1200.82 146.3V9444.66Z"/>
</svg>